inDegrees=no
num_controls=7
num_derivatives=13
num_iterations=134
num_multipliers=7
num_parameters=0
num_slacks=7
num_states=26
objective=5.272099
objective_accelerations=0.469482
objective_balance=0.112367
objective_effort=0.343576
objective_height=4.326154
objective_ligament=0.020520
solver_duration=1533.320687
status=Solve_Succeeded
success=true
DataType=double
version=3
OpenSimVersion=4.4-2022-07-23-0e9fedc
endheader
time	/jointset/ground_pelvis/pelvis_tilt/value	/jointset/ground_pelvis/pelvis_tx/value	/jointset/ground_pelvis/pelvis_ty/value	/jointset/hip_l/hip_flexion_l/value	/jointset/hip_l/hip_adduction_l/value	/jointset/hip_l/hip_rotation_l/value	/jointset/back/lumbar_extension/value	/jointset/patellofemoral_l/patellar_flexion_l/value	/jointset/knee_l/knee_flexion_l/value	/jointset/knee_l/knee_adduction_l/value	/jointset/knee_l/knee_rotation_l/value	/jointset/ankle_l/ankle_angle_l/value	/jointset/subtalar_l/subtalar_angle_l/value	/jointset/ground_pelvis/pelvis_tilt/speed	/jointset/ground_pelvis/pelvis_tx/speed	/jointset/ground_pelvis/pelvis_ty/speed	/jointset/hip_l/hip_flexion_l/speed	/jointset/hip_l/hip_adduction_l/speed	/jointset/hip_l/hip_rotation_l/speed	/jointset/back/lumbar_extension/speed	/jointset/patellofemoral_l/patellar_flexion_l/speed	/jointset/knee_l/knee_flexion_l/speed	/jointset/knee_l/knee_adduction_l/speed	/jointset/knee_l/knee_rotation_l/speed	/jointset/ankle_l/ankle_angle_l/speed	/jointset/subtalar_l/subtalar_angle_l/speed	/forceset/tau_hip_flexion_l	/forceset/tau_hip_adduction_l	/forceset/tau_hip_rotation_l	/forceset/tau_knee_flexion_l	/forceset/tau_ankle_angle_l	/forceset/tau_subtalar_angle_l	/forceset/tau_lumbar_extension	lambda_cid13_p0	lambda_cid13_p1	lambda_cid13_p2	lambda_cid13_p3	lambda_cid13_p4	lambda_cid13_p5	lambda_cid14_p0	/jointset/ground_pelvis/pelvis_tilt/accel	/jointset/ground_pelvis/pelvis_tx/accel	/jointset/ground_pelvis/pelvis_ty/accel	/jointset/hip_l/hip_flexion_l/accel	/jointset/hip_l/hip_adduction_l/accel	/jointset/hip_l/hip_rotation_l/accel	/jointset/back/lumbar_extension/accel	/jointset/patellofemoral_l/patellar_flexion_l/accel	/jointset/knee_l/knee_flexion_l/accel	/jointset/knee_l/knee_adduction_l/accel	/jointset/knee_l/knee_rotation_l/accel	/jointset/ankle_l/ankle_angle_l/accel	/jointset/subtalar_l/subtalar_angle_l/accel	gamma_cid13_p0	gamma_cid13_p1	gamma_cid13_p2	gamma_cid13_p3	gamma_cid13_p4	gamma_cid13_p5	gamma_cid14_p0
1.5	-0.3397332175911421	-0.007477324553003284	0.7979590045207479	1.043923946404169	-0.3066213346124886	-0.0466514036239274	-0.3226752396363549	0.6701886447188038	0.670188644718811	-0.1734103355649923	0.1744709641173443	0.1377462787344583	-0.02492258910257144	0.4452404029885714	0.1301926782749282	0.3680342807015276	-1.760532023328404	0.02513410316145074	-0.6022218156019143	0.5832493697250992	-1.702189554384388	-1.7021895543844	0.004753428903088028	-0.0007157703282503356	-0.4924094239027162	-0.05398886249757964	-0.1933109036344456	0.03510440096447197	-0.02167030619786175	-0.202868600113825	0.05157214061005415	0.04161995542276712	0.1890920513304739	-21.8446990489991	-18.06830374853855	6.838786650881547	3.885357366883272	-611.3245227757055	-57.42274901313781	-29.37940853137122	0.3782682735386764	0.3453172465105042	-0.2854786519752911	-1.079499815683671	0.5313188580294953	-0.3715568989392191	1.331107052684465	-1.038881901662774	-1.038881901662802	0.01048889360481206	-0.02714495810339861	-0.3224960578310913	0.5168977429264277	1.940376872345115e-07	1.078042172096182e-06	-9.854146437565376e-07	1.185946421487539e-08	2.375009129863791e-07	6.192342625550366e-07	2.334136558871413e-07
1.51	-0.3352621211635097	-0.006158240710612327	0.8016243830346172	1.026266428245344	-0.3063440756326105	-0.05269212030915729	-0.3167772094692869	0.6531170020122877	0.6531170020122402	-0.1733635521304646	0.1744638287729724	0.1328065389460629	-0.02543742624479394	0.4489253104489832	0.1336083320030281	0.3649722521259912	-1.770734291247234	0.03033134422658959	-0.6058263022432351	0.5962845925341116	-1.711905495829805	-1.711905495829817	0.004587977938714643	-0.0007218299248908258	-0.4954619063102233	-0.04896402568515746	-0.1874627025443379	0.03400757837142188	-0.02155319687933435	-0.2014490526484302	0.05430920912502071	0.04093249618811838	0.1843319533837751	-20.83517725057728	-18.02911188581504	6.926900543927449	3.596781004652627	-608.2827246392078	-57.70875940529555	-30.33242253322668	0.3555786802011824	0.3373469057104518	-0.3269087165372914	-0.9549781148907279	0.5159161549876875	-0.3404264766962022	1.278919222391914	-0.9029623588904792	-0.9029623588902352	-0.03217838874938066	0.01120447595578688	-0.2851089052517909	0.4973112894059218	1.25802998297615e-07	1.227634666108841e-06	-6.689956207600975e-07	7.399563286475651e-08	1.854789886603957e-07	6.178442393451158e-07	1.973618377267533e-07
1.52	-0.3307557803216989	-0.004805468836988923	0.8052570725114917	1.00851400984033	-0.3060144463572792	-0.05876598824678748	-0.3107509892086519	0.6359551974726579	0.6359551974727071	-0.1733188464647815	0.1744563410201554	0.1278385774189826	-0.02590160809108985	0.4522892858257366	0.1369302845214174	0.3614964733025819	-1.779512072562345	0.03560816226106565	-0.6088520660833222	0.6088873884383734	-1.720221920991597	-1.720221920991607	0.004337875082671456	-0.0007862520655546307	-0.4980537716393866	-0.04385780331249714	-0.1816145014543207	0.03291075577824255	-0.02143608755884829	-0.2000295051833144	0.0570462776399757	0.04024503695344354	0.1795718554370261	-19.83260483187329	-17.99126244851269	7.018152326728041	3.312776130647373	-605.3599090677891	-58.04727159632856	-31.26541506555734	0.3140818568074332	0.3265770045679204	-0.3682287015499253	-0.7946024949396072	0.5472342518966727	-0.2558123386928003	1.244621671734598	-0.7589786449374685	-0.7589786449374856	-0.006441484729134503	-0.03881746690786841	-0.2303726421629115	0.5331748549738813	8.843166975865107e-08	1.348175242411795e-06	-5.044202007656133e-07	1.111768531508689e-07	1.628513364860955e-07	6.344304782536091e-07	1.814682475744604e-07
1.53	-0.3262174518711325	-0.003420000161149326	0.8088529558131136	0.9906810762013408	-0.3056317341125616	-0.06486751200523887	-0.3046011918247186	0.6187173869155135	0.618717386915567	-0.1732769794449798	0.1744482091228352	0.1228470115105297	-0.02631440244939479	0.455313962538356	0.1401414506867837	0.3576124117049609	-1.786812813395905	0.0409442956188824	-0.611363750027983	0.620974398775175	-1.727087012053877	-1.727087012053876	0.004031209761428192	-0.000841518737262241	-0.5001787942559232	-0.03868971818226899	-0.1754131834398122	0.03152363722133045	-0.02138786304919258	-0.1989092432421194	0.06023383446187274	0.03943885569019517	0.1745073411513156	-18.68335659036166	-17.92707276992758	7.104677412718773	2.964970955211269	-602.3338937325378	-58.38445035555183	-32.17433764139437	0.2873053902196321	0.3151119380934537	-0.4086259743456613	-0.658520360264462	0.5282214598074116	-0.2353074278236054	1.176087279192655	-0.6123355694212224	-0.6123355694194094	-0.04322371428127121	0.01103567108839635	-0.1914518367904576	0.510152377716763	8.385266164249007e-08	1.437848156148188e-06	-5.011786089607055e-07	1.218434408004773e-07	1.714550984729585e-07	6.701164956629171e-07	1.869927746807683e-07
1.54	-0.3216507476910725	-0.002003074720540712	0.8124079722816639	0.9727829930575057	-0.3051953768178395	-0.07099144480421216	-0.2983334550245045	0.6014185132012623	0.6014185132012626	-0.1732382680101339	0.1744395079464362	0.117836618422838	-0.02667521054926286	0.4579644317201179	0.1432216374752207	0.3533231066882779	-1.792541973537479	0.04633717225999396	-0.6133338741914693	0.6324752716935202	-1.732434552418068	-1.732434552418054	0.003706758101846077	-0.0009001078733470424	-0.5018192074881189	-0.03346055162524714	-0.1692118654251694	0.0301365186645533	-0.02133963853989572	-0.1977889813008213	0.06342139128381283	0.03863267442708272	0.169442826865686	-17.54128320601467	-17.86393159196349	7.19400284250754	2.623555000117965	-599.4302791629858	-58.77568974373209	-33.05515464425648	0.2392403506365382	0.300381129181605	-0.4492773853623889	-0.4802863565421968	0.5585829085556229	-0.1475003824581029	1.127394188043604	-0.4554685053194278	-0.4554685053194279	-0.009998752396894734	-0.03948195978306484	-0.1334507652953638	0.5453911403324372	7.748764194428892e-08	1.511863882311285e-06	-4.947137401979333e-07	1.318684978736217e-07	1.762174584346347e-07	6.983521449359016e-07	1.907082717235473e-07
1.55	-0.3170594140766698	-0.000556041196676097	0.8159181208702069	0.954835490591917	-0.3047048897073292	-0.0771324883582105	-0.2919537607404701	0.5840738033668539	0.5840738033668702	-0.1732029163891672	0.1744303247174821	0.1128122468101163	-0.02698349919729939	0.4602379419495861	0.1461587155634143	0.3486439297556986	-1.796690738772324	0.05176282628448774	-0.614780746626463	0.6433543061956063	-1.736248922636224	-1.736248922636222	0.003355723725541139	-0.0009391657373846672	-0.5029737116823441	-0.02819331482882859	-0.1629418797257759	0.02863944622908409	-0.02133711963228035	-0.1967504068934736	0.06674683247939235	0.03768124517179489	0.1643128825412061	-16.36375945487834	-17.7414450415245	7.271043621513046	2.282249344328423	-596.5986924875264	-59.08204106513777	-33.90376542457185	0.2117628310735765	0.2864476497855383	-0.4866046889328204	-0.341993680353711	0.5348403630459938	-0.1289638283886437	1.051766244204302	-0.3056861544050972	-0.3056861544068347	-0.04861110995777745	0.01361534032233152	-0.09421734246117697	0.517774054326691	6.906482629286768e-08	1.567839805400803e-06	-4.845350958097955e-07	1.411544001521445e-07	1.765538551933787e-07	7.180036743996447e-07	1.92339451519217e-07
